REM DIRINDEX 1\2,1\3,1\4,1\6,1\5\7,1\5\8
REM DIRNAME cjc114,folder01,folder02,folder03,folder04,folder05,folder06,folder07
TITLE ""
FILE "DB4500_5th_2A_32.mp3" MP3
  TRACK 01 AUDIO
    TITLE "0:"
    INDEX 01 00:00:00
  TRACK 02 AUDIO
    TITLE "2:cjc114_1003"
    INDEX 01 00:00:07
  TRACK 03 AUDIO
    TITLE "0:"
    INDEX 01 00:01:26
  TRACK 04 AUDIO
    TITLE "3:cjc114_1004"
    INDEX 01 00:01:52
  TRACK 05 AUDIO
    TITLE "0:"
    INDEX 01 00:02:65
  TRACK 06 AUDIO
    TITLE "4:cjc114_1005"
    INDEX 01 00:03:17
  TRACK 07 AUDIO
    TITLE "0:"
    INDEX 01 00:07:09
  TRACK 08 AUDIO
    TITLE "2:cjc114_1006"
    INDEX 01 00:07:60
  TRACK 09 AUDIO
    TITLE "0:"
    INDEX 01 00:08:72
  TRACK 10 AUDIO
    TITLE "3:cjc114_1007"
    INDEX 01 00:09:22
  TRACK 11 AUDIO
    TITLE "0:"
    INDEX 01 00:10:47
  TRACK 12 AUDIO
    TITLE "4:cjc114_1008"
    INDEX 01 00:10:72
  TRACK 13 AUDIO
    TITLE "0:"
    INDEX 01 00:16:48
  TRACK 14 AUDIO
    TITLE "2:cjc114_1009"
    INDEX 01 00:17:21
  TRACK 15 AUDIO
    TITLE "0:"
    INDEX 01 00:18:25
  TRACK 16 AUDIO
    TITLE "3:cjc114_1010"
    INDEX 01 00:18:48
  TRACK 17 AUDIO
    TITLE "0:"
    INDEX 01 00:19:69
  TRACK 18 AUDIO
    TITLE "4:cjc114_1011"
    INDEX 01 00:20:16
  TRACK 19 AUDIO
    TITLE "0:"
    INDEX 01 00:24:71
  TRACK 20 AUDIO
    TITLE "2:cjc114_1012"
    INDEX 01 00:25:45
  TRACK 21 AUDIO
    TITLE "0:"
    INDEX 01 00:26:46
  TRACK 22 AUDIO
    TITLE "3:cjc114_1013"
    INDEX 01 00:26:71
  TRACK 23 AUDIO
    TITLE "0:"
    INDEX 01 00:28:06
  TRACK 24 AUDIO
    TITLE "4:cjc114_1014"
    INDEX 01 00:28:29
  TRACK 25 AUDIO
    TITLE "0:"
    INDEX 01 00:32:35
  TRACK 26 AUDIO
    TITLE "2:cjc114_1015"
    INDEX 01 00:33:09
  TRACK 27 AUDIO
    TITLE "0:"
    INDEX 01 00:34:51
  TRACK 28 AUDIO
    TITLE "3:cjc114_1016"
    INDEX 01 00:35:02
  TRACK 29 AUDIO
    TITLE "0:"
    INDEX 01 00:36:33
  TRACK 30 AUDIO
    TITLE "4:cjc114_1017"
    INDEX 01 00:36:60
  TRACK 31 AUDIO
    TITLE "0:"
    INDEX 01 00:42:04
  TRACK 32 AUDIO
    TITLE "2:cjc114_1018"
    INDEX 01 00:42:53
  TRACK 33 AUDIO
    TITLE "0:"
    INDEX 01 00:43:48
  TRACK 34 AUDIO
    TITLE "3:cjc114_1019"
    INDEX 01 00:43:74
  TRACK 35 AUDIO
    TITLE "0:"
    INDEX 01 00:45:06
  TRACK 36 AUDIO
    TITLE "4:cjc114_1020"
    INDEX 01 00:45:32
  TRACK 37 AUDIO
    TITLE "0:"
    INDEX 01 00:49:65
  TRACK 38 AUDIO
    TITLE "2:cjc114_1021"
    INDEX 01 00:50:39
  TRACK 39 AUDIO
    TITLE "0:"
    INDEX 01 00:51:52
  TRACK 40 AUDIO
    TITLE "3:cjc114_1022"
    INDEX 01 00:52:02
  TRACK 41 AUDIO
    TITLE "0:"
    INDEX 01 00:53:11
  TRACK 42 AUDIO
    TITLE "4:cjc114_1023"
    INDEX 01 00:53:35
  TRACK 43 AUDIO
    TITLE "0:"
    INDEX 01 00:56:41
  TRACK 44 AUDIO
    TITLE "2:cjc114_1024"
    INDEX 01 00:57:17
  TRACK 45 AUDIO
    TITLE "0:"
    INDEX 01 00:58:26
  TRACK 46 AUDIO
    TITLE "3:cjc114_1025"
    INDEX 01 00:58:52
  TRACK 47 AUDIO
    TITLE "0:"
    INDEX 01 01:00:23
  TRACK 48 AUDIO
    TITLE "4:cjc114_1026"
    INDEX 01 01:00:47
  TRACK 49 AUDIO
    TITLE "0:"
    INDEX 01 01:05:38
  TRACK 50 AUDIO
    TITLE "2:cjc114_1027"
    INDEX 01 01:06:14
  TRACK 51 AUDIO
    TITLE "0:"
    INDEX 01 01:07:10
  TRACK 52 AUDIO
    TITLE "3:cjc114_1028"
    INDEX 01 01:07:35
  TRACK 53 AUDIO
    TITLE "0:"
    INDEX 01 01:08:23
  TRACK 54 AUDIO
    TITLE "4:cjc114_1029"
    INDEX 01 01:08:48
  TRACK 55 AUDIO
    TITLE "0:"
    INDEX 01 01:13:44
  TRACK 56 AUDIO
    TITLE "2:cjc114_1030"
    INDEX 01 01:14:17
  TRACK 57 AUDIO
    TITLE "0:"
    INDEX 01 01:15:17
  TRACK 58 AUDIO
    TITLE "3:cjc114_1031"
    INDEX 01 01:15:42
  TRACK 59 AUDIO
    TITLE "0:"
    INDEX 01 01:16:63
  TRACK 60 AUDIO
    TITLE "4:cjc114_1032"
    INDEX 01 01:17:14
  TRACK 61 AUDIO
    TITLE "0:"
    INDEX 01 01:20:16
